<svg width="24" height="24" viewBox="0 0 24 24" fill="none" xmlns="http://www.w3.org/2000/svg">
<path d="M16.1206 18.3585C16.1206 18.5286 16.0554 18.6918 15.9393 18.8121C15.8232 18.9324 15.6658 19 15.5017 19H4.36177C4.19763 19 4.04021 18.9324 3.92415 18.8121C3.80809 18.6918 3.74288 18.5286 3.74288 18.3585C3.74288 18.1883 3.80809 18.0251 3.92415 17.9048C4.04021 17.7845 4.19763 17.7169 4.36177 17.7169H15.5017C15.6658 17.7169 15.8232 17.7845 15.9393 17.9048C16.0554 18.0251 16.1206 18.1883 16.1206 18.3585ZM21.9901 8.52892C21.9741 8.62028 21.9392 8.70696 21.8878 8.78297C21.8363 8.85899 21.7696 8.92252 21.6922 8.96918L9.97915 16.0284C9.4045 16.3783 8.73574 16.5253 8.07353 16.4472C7.41133 16.3691 6.79151 16.0702 6.30738 15.5953L3.39128 12.7615C3.24123 12.6157 3.12859 12.4334 3.06354 12.2312C2.99849 12.0289 2.98309 11.8131 3.01871 11.6031C3.05434 11.3931 3.13988 11.1957 3.2676 11.0286C3.39532 10.8615 3.56119 10.73 3.75023 10.646L5.04633 10.0703C5.12336 10.0361 5.20629 10.0184 5.29009 10.0184C5.3739 10.0184 5.45683 10.0361 5.53386 10.0703L7.41666 10.9067L8.57204 10.2224L6.83336 8.60038C6.6789 8.45629 6.56191 8.27422 6.49319 8.07094C6.42447 7.86766 6.40622 7.64972 6.44013 7.43721C6.47404 7.22469 6.55902 7.02445 6.68723 6.85494C6.81544 6.68542 6.98275 6.5521 7.17375 6.46725L8.45019 5.90029C8.5895 5.83837 8.7459 5.83164 8.88968 5.88136L13.2644 7.393L16.4542 5.44784C17.0897 5.05631 17.84 4.91498 18.5679 5.04968C19.2957 5.18438 19.9525 5.58612 20.4181 6.18145L21.8601 8.00831C21.9168 8.08017 21.9578 8.16393 21.9803 8.25382C22.0027 8.3437 22.0061 8.43757 21.9901 8.52892ZM20.4422 8.23831L19.4602 6.99396C19.1808 6.63677 18.7868 6.39572 18.3501 6.31489C17.9134 6.23405 17.4632 6.31882 17.0819 6.5537L13.6495 8.64673C13.5733 8.69315 13.4884 8.72214 13.4005 8.73173C13.3127 8.74133 13.2238 8.73132 13.1399 8.70238L8.72142 7.17567L7.66135 7.64665L10.0363 9.86237C10.1091 9.93027 10.1653 10.0151 10.2003 10.1099C10.2353 10.2047 10.2481 10.3067 10.2376 10.4076C10.2272 10.5085 10.1938 10.6054 10.1402 10.6904C10.0866 10.7753 10.0143 10.8459 9.92933 10.8962L7.76323 12.1793C7.68012 12.2285 7.58711 12.2571 7.49153 12.2628C7.39595 12.2684 7.30041 12.251 7.21243 12.2119L5.29009 11.3579L4.23783 11.8254L7.15402 14.6594C7.44449 14.9443 7.81639 15.1237 8.21372 15.1706C8.61106 15.2174 9.01232 15.1292 9.35709 14.9192L20.4422 8.23831Z" fill="#333333"/>
</svg>
